<svg xmlns="http://www.w3.org/2000/svg" viewBox="0 0 64 64" width="64" height="64">
  <defs>
    <linearGradient id="pinGrad" x1="0%" y1="0%" x2="100%" y2="100%">
      <stop offset="0%" stop-color="#FF5252" />
      <stop offset="100%" stop-color="#D32F2F" />
    </linearGradient>
    <linearGradient id="sunGrad" x1="0%" y1="0%" x2="100%" y2="100%">
      <stop offset="0%" stop-color="#FFD54F" />
      <stop offset="100%" stop-color="#FF8F00" />
    </linearGradient>
    <linearGradient id="cloudGrad" x1="0%" y1="0%" x2="0%" y2="100%">
      <stop offset="0%" stop-color="#FFFFFF" />
      <stop offset="100%" stop-color="#E0F7FA" />
    </linearGradient>
    <filter id="shadow" x="-20%" y="-20%" width="140%" height="140%">
      <feDropShadow dx="0" dy="3" stdDeviation="3" flood-opacity="0.2" />
    </filter>
  </defs>

  <!-- Location Pin -->
  <path filter="url(#shadow)" d="M32 4 C20.95 4 12 12.95 12 24 C12 38.62 32 60 32 60 C32 60 52 38.62 52 24 C52 12.95 43.05 4 32 4 Z" fill="url(#pinGrad)" />
  
  <!-- Outer circle inside pin -->
  <circle cx="32" cy="24" r="14" fill="#FFFFFF" />

  <!-- Sun Inside -->
  <circle cx="32" cy="22" r="6" fill="url(#sunGrad)" />
  <g stroke="url(#sunGrad)" stroke-width="1.5" stroke-linecap="round">
    <line x1="32" y1="12" x2="32" y2="14" />
    <line x1="32" y1="30" x2="32" y2="32" />
    <line x1="22" y1="22" x2="24" y2="22" />
    <line x1="40" y1="22" x2="42" y2="22" />
    <line x1="24.9" y1="14.9" x2="26.3" y2="16.3" />
    <line x1="37.7" y1="27.7" x2="39.1" y2="29.1" />
    <line x1="24.9" y1="29.1" x2="26.3" y2="27.7" />
    <line x1="37.7" y1="16.3" x2="39.1" y2="14.9" />
  </g>

  <!-- Cloud Inside -->
  <path d="M39 28 H24 c-2.21 0-4-1.79-4-4 c0-2.05 1.54-3.76 3.54-3.97 C24.38 18.42 25.83 17 28 17 c1.88 0 3.48 1.29 3.91 3.04 c0.29-0.15 0.63-0.24 0.98-0.24 c1.22 0 2.2 0.98 2.2 2.2 c0 0.18-0.02 0.34-0.06 0.51 C36.5 22.84 37.6 24.29 37.6 26 C37.6 26.88 38.32 28 39 28 Z" fill="url(#cloudGrad)" />
</svg>
